<svg id="line" height="512" viewBox="0 0 64 64" width="512" xmlns="http://www.w3.org/2000/svg"><circle cx="46" cy="30.462" fill="#c4a2fc" r="11"/><path d="m46 13.462a17 17 0 1 0 17 17 17.019 17.019 0 0 0 -17-17zm0 30a13 13 0 1 1 13-13 13.015 13.015 0 0 1 -13 13z" fill="#c4a2fc"/><path d="m15.008 54.579a4.865 4.865 0 1 0 6.876 6.875l9.536-10.218-6.194-6.194z" fill="#c4a2fc"/><path d="m29.968 40.616-3.279 3.061 6.1 6.1 3.061-3.28a19.124 19.124 0 0 1 -5.882-5.881z" fill="#c4a2fc"/><g fill="#151a6a"><path d="m48 1h-44a3 3 0 0 0 -3 3v36a3 3 0 0 0 3 3h44a3 3 0 0 0 3-3v-36a3 3 0 0 0 -3-3zm-44 2h44a1 1 0 0 1 1 1v5h-46v-5a1 1 0 0 1 1-1zm44 38h-44a1 1 0 0 1 -1-1v-29h46v29a1 1 0 0 1 -1 1z"/><path d="m18.776 27.362a1.769 1.769 0 0 1 -1.427.627 2.479 2.479 0 1 1 0-4.957 2.453 2.453 0 0 1 1.383.423 1 1 0 0 0 1.122-1.655 4.479 4.479 0 1 0 -2.5 8.192 3.768 3.768 0 0 0 2.946-1.339 1 1 0 0 0 -1.528-1.291z"/><path d="m26.705 21.032a4.479 4.479 0 1 0 4.479 4.479 4.484 4.484 0 0 0 -4.479-4.479zm0 6.957a2.479 2.479 0 1 1 2.479-2.478 2.481 2.481 0 0 1 -2.479 2.478z"/><path d="m41.108 21.158a3.209 3.209 0 0 0 -2.291.878 2.8 2.8 0 0 0 -2.2-.914 3.209 3.209 0 0 0 -1.617.442.993.993 0 0 0 -1.883.447v7a1 1 0 1 0 2 0v-3.62c0-1.047.4-2.269 1.508-2.269.469 0 1.052 0 1.108 1.937.006.155 0 3.851 0 3.952a1 1 0 1 0 2 0c0-.1 0-4.364 0-4.092 0-1.169.462-1.761 1.373-1.761 1.024 0 1.256.512 1.177 2.294v3.559a1 1 0 0 0 2 0v-3.511c.117-2.491-.665-4.342-3.175-4.342z"/><circle cx="10.205" cy="28.489" r="1.5"/></g></svg>